<?xml version="1.0" encoding="utf-8"?>
<!-- Generator: Adobe Illustrator 16.0.0, SVG Export Plug-In . SVG Version: 6.00 Build 0)  -->
<!DOCTYPE svg PUBLIC "-//W3C//DTD SVG 1.1//EN" "http://www.w3.org/Graphics/SVG/1.1/DTD/svg11.dtd">
<svg version="1.1" id="Layer_1" xmlns="http://www.w3.org/2000/svg" xmlns:xlink="http://www.w3.org/1999/xlink" x="0px" y="0px"
	 width="66px" height="66px" viewBox="0 0 66 66" enable-background="new 0 0 66 66" xml:space="preserve">
<g>
	<g>
		<path fill="#FFB9A4" d="M53.367,30.623c0,16.1,9.414,29.152-6.687,29.152c-16.1,0-29.152-6.979-29.152-23.079
			S29.367,1.471,45.466,1.471C61.566,1.471,53.367,14.522,53.367,30.623z"/>
		
			<ellipse transform="matrix(0.9834 -0.1817 0.1817 0.9834 -9.4937 8.3758)" fill="#FFB9A4" cx="40.968" cy="56.005" rx="15.184" ry="8.199"/>
		<path fill="#E5AAA3" d="M40.617,61.357c-6.047,0.248-11.424-0.994-14.623-3.079c0.012,0.161,0.014,0.324,0.043,0.485
			c0.824,4.455,8.176,6.828,16.422,5.304c5.953-1.101,10.729-3.933,12.623-7.098C52.092,59.372,46.766,61.105,40.617,61.357z"/>
		<path fill="#FFB9A4" d="M46.798,20.611c7.52,7.279,6.482,20.553-2.319,29.645c-8.801,9.088-22.033,10.552-29.555,3.272
			c-7.521-7.282-6.482-20.557,2.318-29.646C26.045,14.793,39.276,13.329,46.798,20.611z"/>
		<path fill="#FFB9A4" d="M32.719,5.925c0,0-8.301,5.466-10.527,6.073c0,0-3.542-1.062-2.023,2.631c0,0-1.621,5.264,2.023,7.896
			s21.459-5.061,21.459-5.061L32.719,5.925z"/>
	</g>
	<g>
		<path fill="#B52815" d="M12.436,40.24c0,8.284,5.652,15,12.625,15s7.625-6.716,7.625-15s-0.652-15-7.625-15
			S12.436,31.956,12.436,40.24z"/>
		<path fill="#D88B7C" d="M12.436,40.24c0,8.284,5.652,15,12.625,15s9.458-6.716,9.458-15s-2.485-15-9.458-15"/>
		<path fill="#991B0E" d="M12.436,40.24c0,8.284,5.652,15,12.625,15s7.625-6.716,7.625-15s-0.652-15-7.625-15"/>
		<path fill="#8C1010" d="M12.436,40.24c0,8.284,5.652,15,12.625,15s7.625-6.716,7.625-15"/>
	</g>
	<path fill="#F7DDC6" d="M35.175,6.114c0.37,0.637-0.929,3.054-3.989,4.835c-3.064,1.784-6.731,2.257-7.102,1.621
		c-0.371-0.638,2.313-1.734,5.378-3.517C32.524,7.271,34.804,5.478,35.175,6.114z"/>
	<circle fill="#F7DDC6" cx="36.842" cy="5.646" r="0.594"/>
	<circle fill="#F7DDC6" cx="38.779" cy="4.521" r="0.344"/>
	<ellipse fill="#F7DDC6" cx="45.154" cy="3.303" rx="4.531" ry="0.875"/>
	<path fill="#F7DDC6" d="M21.443,22.148c0.33,0.353-0.008,0.967-4.258,4.029c-2.073,1.494-2.356,3.353-2.688,3
		c-0.33-0.354,1.098-2.772,2.965-4.515C19.332,22.921,21.115,21.795,21.443,22.148z"/>
	<g>
		<path fill="#F7DDC6" d="M15.537,38.4c0-4.658,2.566-8.436,5.729-8.436c3.165,0,3.264,5.412,1.911,9.055
			c-1.624,4.368,1.254,7.816-1.911,7.816C18.104,46.836,15.537,43.061,15.537,38.4z"/>
		<path fill="#F7DDC6" d="M29.715,51.506c-2.285,2.554-6.209,2.771-8.764,0.488c-2.555-2.287-1.822-5.363,0.461-7.917
			c2.285-2.555,5.261-3.622,7.816-1.337C31.782,45.027,32,48.95,29.715,51.506z"/>
		<path fill="#F7DDC6" d="M16.285,32.166c0.891-2.095,3.312-3.07,5.406-2.18c2.098,0.893,2.293,2.984,1.402,5.078
			c-0.893,2.095-3.234,5.105-5.328,4.212C15.67,38.386,15.393,34.26,16.285,32.166z"/>
		
			<ellipse transform="matrix(-0.5372 0.8435 -0.8435 -0.5372 69.6406 45.4379)" fill="#F7DDC6" cx="22.354" cy="41.825" rx="3.994" ry="1.51"/>
		
			<ellipse transform="matrix(-0.9759 -0.2181 0.2181 -0.9759 41.709 83.473)" fill="#F7DDC6" cx="25.461" cy="39.435" rx="2.288" ry="1.064"/>
		<path fill="#F7DDC6" d="M19.103,30.641c0.511-0.974,2.521-0.923,4.487,0.11c1.969,1.033,4.029,3.542,3.519,4.514
			c-0.511,0.973-3.401,0.044-5.368-0.99C19.772,33.239,18.592,31.614,19.103,30.641z"/>
		<path fill="#F7DDC6" d="M26.785,35.399c-0.521,0.15-1.192-0.582-1.492-1.636c-0.302-1.053-0.109-2.642,0.412-2.791
			c0.522-0.148,1.176,1.197,1.479,2.25C27.484,34.275,27.307,35.251,26.785,35.399z"/>
		<circle fill="#F7DDC6" cx="27.845" cy="39.992" r="0.954"/>
		
			<ellipse transform="matrix(-0.3375 0.9413 -0.9413 -0.3375 63.0632 16.1332)" fill="#F7DDC6" cx="25.854" cy="30.258" rx="1.617" ry="0.715"/>
	</g>
</g>
</svg>
